<svg xmlns="http://www.w3.org/2000/svg"  viewBox="0 0 48 48" width="48px" height="48px"><path fill="#ed488b" d="M43.74,7.009c-0.106-1.229-0.292-2.593-1.245-3.377c-0.831-0.684-2.002-0.719-3.079-0.719 C28.09,2.907,16.765,3.156,5.45,3.645C4.951,4.04,4.865,4.85,4.864,5.528C4.838,16.903,5.035,28.279,5.455,39.646 c0.023,0.618,0.056,1.269,0.39,1.79c0.558,0.872,1.729,1.07,2.761,1.156c3.768,0.311,7.557,0.219,11.337,0.127 c6.707-0.164,13.413-0.328,20.12-0.492c1.303-0.032,2.746-0.121,3.661-1.05c0.93-0.945,0.982-2.42,0.976-3.746 C44.656,27.282,44.611,17.12,43.74,7.009z"/><path fill="#fff" d="M36.303,19.189c0.938-2.713,0.004-6.143-2.527-7.498c-1.47-0.787-3.216-0.806-4.884-0.807 c-3.553-0.001-7.106-0.002-10.658-0.003l0.077,0.078c0.896,0.612,1.323,1.744,1.352,2.828c0.029,1.085-0.282,2.146-0.591,3.187 c-1.433,4.832-2.866,9.664-4.299,14.496c-0.169,0.569-0.341,1.147-0.667,1.642c-0.613,0.932-1.675,1.448-2.686,1.921 c3.1,0.19,6.211,0.203,9.312,0.039c0.326-0.665-0.401-1.336-0.659-2.031c-0.241-0.649-0.055-1.37,0.132-2.037 c0.459-1.633,0.917-3.266,1.376-4.899c0.044-0.156,0.096-0.324,0.228-0.417c0.118-0.084,0.274-0.087,0.419-0.084 c0.603,0.013,1.205,0.088,1.793,0.224c0.199,0.046,0.406,0.104,0.552,0.247c0.167,0.164,0.223,0.407,0.271,0.637 c0.532,2.533,1.063,5.067,1.595,7.6c0.054,0.256,0.116,0.528,0.307,0.707c0.231,0.216,0.579,0.232,0.895,0.236 c2.128,0.023,4.257,0.025,6.385,0.004c-0.088-1.389-1.743-2.063-2.494-3.235c-0.434-0.679-0.547-1.508-0.65-2.307 c-0.203-1.584-0.407-3.168-0.61-4.752C32.934,23.89,35.365,21.902,36.303,19.189z M30.004,21.512 c-0.375,0.665-0.818,1.359-1.524,1.65c-0.442,0.182-0.934,0.182-1.412,0.18c-1.267-0.007-2.533-0.014-3.8-0.021 c-0.153-0.001-0.318-0.005-0.443-0.093c-0.248-0.174-0.202-0.548-0.128-0.842c0.685-2.75,1.369-5.499,2.054-8.248l0.186,0.008 c0.856,0.007,1.712,0.015,2.569,0.022c0.678,0.006,1.377,0.016,2.001,0.284c1.229,0.528,1.864,1.973,1.813,3.31 C31.267,19.099,30.662,20.347,30.004,21.512z"/><path fill="#010101" d="M5.45,4.145c0.643,0,0.645-1,0-1C4.806,3.145,4.805,4.145,5.45,4.145L5.45,4.145z"/><path fill="#010101" d="M44.24,7.009c-0.175-1.952-0.702-3.953-2.874-4.437c-1.116-0.249-2.303-0.16-3.438-0.158 c-1.323,0.002-2.645,0.007-3.968,0.016c-5.373,0.036-10.746,0.129-16.118,0.277c-2.686,0.074-5.371,0.162-8.056,0.263 C8.424,3.021,7.058,3.055,5.697,3.134C4.739,3.19,4.46,4.167,4.386,5.003c-0.11,1.24-0.025,2.519-0.023,3.763 c0.002,1.37,0.007,2.74,0.016,4.11c0.017,2.698,0.046,5.397,0.087,8.095c0.084,5.396,0.217,10.792,0.401,16.186 c0.041,1.194-0.049,2.483,0.204,3.655c0.207,0.961,0.858,1.615,1.763,1.95c1.014,0.376,2.182,0.372,3.247,0.433 c1.313,0.074,2.627,0.106,3.942,0.112c5.366,0.025,10.739-0.205,16.104-0.336c2.691-0.066,5.382-0.132,8.073-0.197 c1.937-0.047,4.58,0.249,6.004-1.381c1.421-1.626,0.995-4.336,0.985-6.313c-0.013-2.682-0.03-5.365-0.068-8.047 c-0.074-5.362-0.228-10.724-0.582-16.076C44.453,9.64,44.352,8.324,44.24,7.009c-0.054-0.636-1.055-0.642-1,0 c0.626,7.318,0.828,14.663,0.906,22.005c0.019,1.816,0.031,3.631,0.04,5.447c0.008,1.601,0.219,3.37-0.125,4.947 c-0.362,1.66-1.682,2.191-3.244,2.29c-1.736,0.11-3.487,0.097-5.226,0.139c-7.265,0.178-14.548,0.52-21.815,0.468 c-1.779-0.013-3.573-0.048-5.344-0.228c-0.64-0.065-1.404-0.169-1.908-0.611c-0.669-0.587-0.564-1.639-0.593-2.442 c-0.134-3.692-0.244-7.386-0.331-11.08c-0.096-4.067-0.162-8.136-0.201-12.204c-0.02-2.076-0.032-4.151-0.037-6.227 C5.362,8.517,5.361,7.52,5.362,6.524c0.001-0.764-0.185-1.95,0.441-2.525C5.685,4.048,5.567,4.096,5.45,4.145 c10.82-0.466,21.649-0.715,32.478-0.732c1.206-0.002,2.725-0.212,3.845,0.346c1.194,0.594,1.361,2.068,1.467,3.25 C43.297,7.645,44.297,7.651,44.24,7.009z"/><path fill="#010101" d="M36.785,19.322c1.093-3.304-0.299-7.346-3.769-8.491c-2.188-0.722-4.708-0.446-6.975-0.447 c-2.603-0.001-5.205-0.001-7.808-0.002c-0.435,0-0.657,0.546-0.354,0.854c0.251,0.254,0.536,0.44,0.741,0.741 c0.248,0.364,0.4,0.789,0.48,1.221c0.201,1.073-0.086,2.17-0.381,3.198c-0.646,2.254-1.332,4.497-1.999,6.745 c-0.658,2.218-1.315,4.436-1.973,6.654c-0.304,1.024-0.504,2.301-1.153,3.173c-0.592,0.796-1.555,1.226-2.428,1.636 c-0.483,0.227-0.2,0.905,0.252,0.932c3.102,0.185,6.209,0.198,9.312,0.039c0.238-0.012,0.401-0.15,0.482-0.367 c0.37-0.994-0.515-1.606-0.719-2.493c-0.137-0.599,0.098-1.237,0.258-1.808c0.174-0.622,0.349-1.244,0.524-1.866 c0.175-0.622,0.349-1.244,0.524-1.866c0.059-0.212,0.113-0.779,0.262-0.933c0.217-0.224,0.557-0.123,0.842-0.094 c0.325,0.033,0.666,0.077,0.983,0.166c0.337,0.094,0.375,0.199,0.474,0.535c0.18,0.615,0.267,1.273,0.399,1.9 c0.266,1.267,0.532,2.533,0.797,3.8c0.133,0.632,0.247,1.272,0.399,1.9c0.108,0.446,0.263,0.875,0.688,1.113 c0.441,0.247,1.002,0.197,1.487,0.202c0.655,0.006,1.31,0.01,1.965,0.012c1.31,0.004,2.62-0.001,3.929-0.013 c0.249-0.002,0.529-0.228,0.5-0.5c-0.188-1.743-1.909-2.264-2.664-3.66c-0.492-0.91-0.503-2.065-0.632-3.07 c-0.153-1.188-0.305-2.376-0.458-3.564c-0.122,0.161-0.245,0.321-0.367,0.482C33.23,24.283,35.727,22.265,36.785,19.322 c0.218-0.607-0.748-0.868-0.964-0.266c-0.928,2.579-3.208,4.407-5.682,5.426c-0.184,0.076-0.397,0.251-0.367,0.482 c0.153,1.188,0.305,2.376,0.458,3.564c0.123,0.959,0.168,1.984,0.482,2.906c0.264,0.776,0.749,1.37,1.345,1.919 c0.564,0.519,1.38,1.079,1.47,1.906c0.167-0.167,0.333-0.333,0.5-0.5c-1.105,0.01-2.21,0.015-3.315,0.014 c-0.532-0.001-1.064-0.002-1.596-0.006c-0.527-0.003-1.152,0.087-1.666-0.018c-0.592-0.12-0.595-0.892-0.702-1.401 c-0.116-0.554-0.233-1.108-0.349-1.662c-0.224-1.069-0.448-2.137-0.673-3.206c-0.1-0.475-0.199-0.95-0.299-1.425 c-0.085-0.407-0.134-0.855-0.393-1.196c-0.48-0.632-1.516-0.661-2.24-0.723c-0.814-0.07-1.416-0.018-1.694,0.838 c-0.336,1.034-0.591,2.103-0.884,3.15c-0.288,1.027-0.75,2.138-0.754,3.217c-0.001,0.453,0.12,0.874,0.327,1.274 c0.21,0.405,0.64,0.849,0.462,1.327c0.161-0.122,0.321-0.245,0.482-0.367c-3.103,0.16-6.21,0.147-9.312-0.039 c0.084,0.311,0.168,0.621,0.252,0.932c0.922-0.433,1.877-0.899,2.553-1.687c0.751-0.875,0.992-2.048,1.312-3.126 c0.74-2.495,1.48-4.991,2.22-7.486c0.728-2.457,1.589-4.913,2.168-7.409c0.241-1.041,0.356-2.141,0.055-3.182 c-0.258-0.896-0.764-1.41-1.394-2.048c-0.118,0.285-0.236,0.569-0.354,0.854c2.313,0.001,4.627,0.001,6.94,0.002 c2.141,0.001,4.412-0.205,6.531,0.155c1.752,0.298,3.158,1.245,3.906,2.878c0.666,1.452,0.708,3.133,0.21,4.64 C35.619,19.668,36.584,19.931,36.785,19.322z"/><g><path fill="#010101" d="M29.638,13.97c-0.796-0.315-1.658-0.298-2.5-0.305c-0.795-0.007-1.593,0.007-2.387-0.027 c-0.213-0.009-0.431,0.161-0.482,0.367c-0.51,2.047-1.019,4.095-1.529,6.142c-0.124,0.497-0.248,0.995-0.371,1.492 c-0.102,0.41-0.262,0.851-0.218,1.279c0.101,0.989,1.091,0.903,1.842,0.907c1.025,0.006,2.051,0.015,3.076,0.017 c0.907,0.001,1.741-0.117,2.423-0.766c0.58-0.552,0.968-1.317,1.329-2.021c0.421-0.821,0.786-1.688,0.927-2.604 c0.261-1.695-0.327-3.664-1.989-4.43c-0.581-0.268-1.089,0.594-0.505,0.863c1.157,0.533,1.645,1.821,1.556,3.038 c-0.058,0.789-0.335,1.558-0.673,2.267c-0.297,0.622-0.622,1.273-1.038,1.825c-0.467,0.62-1.026,0.821-1.79,0.828 c-0.834,0.009-1.668-0.008-2.502-0.012c-0.422-0.002-0.844-0.005-1.267-0.007c-0.051,0-0.385,0.026-0.401,0.007 c-0.056-0.066,0.072-0.439,0.084-0.486c0.202-0.82,0.408-1.638,0.612-2.457c0.466-1.872,0.932-3.744,1.398-5.616 c-0.161,0.122-0.321,0.245-0.482,0.367c0.733,0.032,1.47,0.019,2.204,0.026c0.817,0.007,1.645-0.035,2.418,0.271 C29.971,15.171,30.231,14.205,29.638,13.97z"/></g></svg>